<?xml version="1.0" standalone="no"?>
<!DOCTYPE svg PUBLIC "-//W3C//DTD SVG 20010904//EN"
 "http://www.w3.org/TR/2001/REC-SVG-20010904/DTD/svg10.dtd">
<svg version="1.0" xmlns="http://www.w3.org/2000/svg"
 width="200.000000pt" height="200.000000pt" viewBox="0 0 200.000000 200.000000"
 preserveAspectRatio="xMidYMid meet">

<g transform="translate(0.000000,200.000000) scale(0.100000,-0.100000)"
fill="#000000" stroke="none">
<path d="M222 1283 l3 -128 40 -3 c74 -5 78 6 72 178 l-2 75 -58 3 -58 3 3
-128z m88 57 c0 -36 -2 -40 -25 -40 -22 0 -25 4 -25 40 0 36 3 40 25 40 23 0
25 -4 25 -40z m-2 -112 c3 -35 1 -38 -22 -38 -24 0 -26 4 -26 41 0 36 2 40 23
37 18 -2 23 -10 25 -40z"/>
<path d="M446 1384 c-11 -41 -46 -215 -46 -225 0 -23 29 -6 32 19 3 23 8 27
40 30 33 3 37 1 43 -27 4 -18 13 -31 22 -31 11 0 14 7 10 23 -3 12 -15 70 -28
130 -20 97 -24 107 -45 107 -15 0 -24 -8 -28 -26z m49 -101 c7 -53 7 -53 -20
-53 -28 0 -28 0 -21 56 11 96 28 94 41 -3z"/>
<path d="M600 1280 c0 -109 2 -130 15 -130 12 0 15 15 15 75 0 41 4 75 9 75 8
0 35 -61 55 -127 4 -13 14 -23 22 -23 11 0 14 24 14 130 0 109 -2 130 -15 130
-12 0 -15 -14 -15 -70 0 -38 -4 -70 -8 -70 -5 0 -20 32 -33 70 -17 51 -28 70
-41 70 -16 0 -18 -12 -18 -130z"/>
<path d="M790 1279 l0 -132 51 5 c28 3 55 12 60 19 12 20 11 196 -1 220 -8 15
-22 19 -60 19 l-50 0 0 -131z m85 6 l0 -90 -27 -3 -28 -3 0 96 0 96 28 -3 27
-3 0 -90z"/>
<path d="M410 930 l0 -130 44 0 c27 0 51 6 60 16 19 18 21 85 4 102 -9 9 -9
15 0 24 17 17 15 84 -4 102 -9 10 -33 16 -60 16 l-44 0 0 -130z m80 86 c20
-26 8 -61 -22 -64 -27 -3 -28 -1 -28 37 0 33 3 41 19 41 10 0 24 -7 31 -14z
m8 -134 c4 -28 -14 -52 -39 -52 -16 0 -19 8 -19 41 0 38 1 40 28 37 19 -2 28
-9 30 -26z"/>
<path d="M611 953 c-13 -60 -25 -118 -28 -130 -4 -16 -1 -23 10 -23 9 0 18 13
22 30 6 26 11 30 41 30 30 0 35 -4 41 -30 3 -16 12 -30 19 -30 18 0 18 -1 -11
134 -14 64 -25 118 -25 121 0 3 -10 5 -23 5 -22 0 -25 -8 -46 -107z m64 -15
l7 -58 -27 0 c-27 0 -28 1 -21 50 13 99 30 102 41 8z"/>
<path d="M800 1050 c-9 -6 -14 -27 -15 -62 l0 -53 43 -15 c41 -14 43 -17 40
-50 -4 -44 -32 -53 -49 -16 -18 39 -43 34 -35 -6 7 -37 20 -48 58 -48 51 0 58
8 58 71 l0 58 -40 12 c-44 13 -57 37 -40 69 14 27 44 22 48 -8 2 -12 10 -22
18 -22 20 0 19 66 -2 74 -23 9 -67 7 -84 -4z"/>
<path d="M960 930 l0 -130 60 0 c46 0 60 3 60 14 0 10 -14 16 -42 18 -42 3
-43 4 -46 41 -3 36 -3 37 32 37 29 0 36 4 36 20 0 16 -7 20 -36 20 -35 0 -35
1 -32 38 3 36 4 37 46 40 28 2 42 8 42 18 0 11 -14 14 -60 14 l-60 0 0 -130z"/>
</g>
</svg>
